<svg class="diagram-root" style="background: #f5f6f6" xmlns="http://www.w3.org/2000/svg" xmlns:xlink="http://www.w3.org/1999/xlink"><style>.diagram-root { font-family: "Helvetica Neue", sans-serif; font-size: 12px; } .t { overflow: visible; } .t-bg { y: 40; fill: #fff;   } .th { fill: #005aa0;   } .tht { fill: #fff; font-size: 14px;  } .tf { fill: #323c46; overflow: visible; } .tf.pk { fill: #005aa0; font-weight: bold; } .tf.fk { font-weight: bold; } .ty { fill: #adb1b5; font-weight: normal; text-anchor: end; } .r { fill: transparent; stroke: #c3c3c3; stroke-width: 1; } .l { stroke: 1; } .i { fill: #c2c7ce; stroke: #c2c7ce; } .i.ix { fill: #afb3b6; stroke: #000; } .fa { fill: transparent; overflow: visible; } .fa .bg.hover { fill: #f7f7f7; } .c { cy: 12; r: 4; stroke: #d2d2dc; fill: #d2d2dc; } .hr { fill: transparent; stroke: #323c46; stroke-opacity: 0.035; stroke-width: 13; } .dc { stroke: #fa5a3c; fill: #fa5a3c; } .x { stroke: white; stroke-width: 1; } .hl .th { fill: #1b9bff; } .hl .tht {  } .fhl .bg { fill: #e7f4ff; } .fhls .bg {  } .r.hl { stroke: #1b9bff; } .dim { opacity: 0.25; }</style><g class="drawing-wrapper" transform="translate(183.25, 327.5) scale(1,1)"><g class="rs"><path d="M 38.16 -150.5 m -1, 0 a 1,1 0 1,0 2,0 a 1,1 0 1,0 -2,0 M 38.16 -150.5 m -0.5, 0 a 0.5,0.5 0 1,0 1,0 a 0.5,0.5 0 1,0 -1,0  M38.16 -150.5 L38.16 -150.5 50.16 -150.5 M44.16 -144.5 L44.16 -144.5 44.16 -156.5 M50.16 -150.5 Q 145.87 -150.5, 241.58 -195.5 T 433 -240.5 M 445 -240.5 m -1, 0 a 1,1 0 1,0 2,0 a 1,1 0 1,0 -2,0 M 445 -240.5 m -0.5, 0 a 0.5,0.5 0 1,0 1,0 a 0.5,0.5 0 1,0 -1,0  M445 -240.5 L445 -240.5 433 -240.5 M439 -234.5 L439 -234.5 439 -246.5" id="h403793656" class="r"></path><path d="M 38.16 124.5 m -1, 0 a 1,1 0 1,0 2,0 a 1,1 0 1,0 -2,0 M 38.16 124.5 m -0.5, 0 a 0.5,0.5 0 1,0 1,0 a 0.5,0.5 0 1,0 -1,0  M38.16 124.5 L38.16 124.5 50.16 124.5 M 38.16 130.5 m -1, 0 a 1,1 0 1,0 2,0 a 1,1 0 1,0 -2,0 M 38.16 130.5 m -0.5, 0 a 0.5,0.5 0 1,0 1,0 a 0.5,0.5 0 1,0 -1,0  M38.16 130.5 L38.16 130.5 45.16 124.5 38.16 118.5 M 38.16 118.5 m -1, 0 a 1,1 0 1,0 2,0 a 1,1 0 1,0 -2,0 M 38.16 118.5 m -0.5, 0 a 0.5,0.5 0 1,0 1,0 a 0.5,0.5 0 1,0 -1,0  M50.16 124.5 Q 137.75 124.5, 225.33 50.75 T 400.5 -23 M 412.5 -23 m -1, 0 a 1,1 0 1,0 2,0 a 1,1 0 1,0 -2,0 M 412.5 -23 m -0.5, 0 a 0.5,0.5 0 1,0 1,0 a 0.5,0.5 0 1,0 -1,0  M412.5 -23 L412.5 -23 400.5 -23 M406.5 -17 L406.5 -17 406.5 -29" id="h304082562" class="r"></path><path d="M 38.16 149.5 m -1, 0 a 1,1 0 1,0 2,0 a 1,1 0 1,0 -2,0 M 38.16 149.5 m -0.5, 0 a 0.5,0.5 0 1,0 1,0 a 0.5,0.5 0 1,0 -1,0  M38.16 149.5 L38.16 149.5 50.16 149.5 M 38.16 155.5 m -1, 0 a 1,1 0 1,0 2,0 a 1,1 0 1,0 -2,0 M 38.16 155.5 m -0.5, 0 a 0.5,0.5 0 1,0 1,0 a 0.5,0.5 0 1,0 -1,0  M38.16 155.5 L38.16 155.5 45.16 149.5 38.16 143.5 M 38.16 143.5 m -1, 0 a 1,1 0 1,0 2,0 a 1,1 0 1,0 -2,0 M 38.16 143.5 m -0.5, 0 a 0.5,0.5 0 1,0 1,0 a 0.5,0.5 0 1,0 -1,0  M50.16 149.5 Q 131.19 149.5, 212.21 193.25 T 374.25 237 M 386.25 237 m -1, 0 a 1,1 0 1,0 2,0 a 1,1 0 1,0 -2,0 M 386.25 237 m -0.5, 0 a 0.5,0.5 0 1,0 1,0 a 0.5,0.5 0 1,0 -1,0  M386.25 237 L386.25 237 374.25 237 M380.25 243 L380.25 243 380.25 231" id="h1054157934" class="r"></path><path d="M 132.5 413.25 m -1, 0 a 1,1 0 1,0 2,0 a 1,1 0 1,0 -2,0 M 132.5 413.25 m -0.5, 0 a 0.5,0.5 0 1,0 1,0 a 0.5,0.5 0 1,0 -1,0  M132.5 413.25 L132.5 413.25 120.5 413.25 M126.5 419.25 L126.5 419.25 126.5 407.25 M120.5 413.25 Q 102.92 413.25, 85.33 118.88 T 50.16 -175.5 M 38.16 -175.5 m -1, 0 a 1,1 0 1,0 2,0 a 1,1 0 1,0 -2,0 M 38.16 -175.5 m -0.5, 0 a 0.5,0.5 0 1,0 1,0 a 0.5,0.5 0 1,0 -1,0  M38.16 -175.5 L38.16 -175.5 50.16 -175.5 M44.16 -169.5 L44.16 -169.5 44.16 -181.5" id="h3812026693" class="r"></path></g><g class="hrs"></g><g class="ts"><svg width="199.41" height="400" x="-161.25" y="-232.5" id="h3257514455" class="t"><rect height="40" width="199.41" class="th"></rect><text x="13" y="25" class="tht">campaign</text><rect height="360" width="199.41" class="t-bg" y="40"></rect><text x="13" y="61" class="tf pk">cf_id<tspan x="186.41" class="ty">int</tspan></text><path d="M7,14A2,2 0 0,1 5,12A2,2 0 0,1 7,10A2,2 0 0,1 9,12A2,2 0 0,1 7,14M12.65,10C11.83,7.67 9.61,6 7, 6A6, 6 0 0, 0 1, 12A6, 6 0 0, 0 7, 18C9.61, 18 11.83, 16.33 12.65, 14H17V18H21V14H23V10H12.65Z" class="i pk" transform="translate(153.736171875, 48) scale(0.65)"></path><text x="13" y="86" class="tf fk">contact_id<tspan x="186.41" class="ty">int</tspan></text><text x="13" y="111" class="tf">company_name<tspan x="186.41" class="ty">varchar(100)</tspan></text><text x="13" y="136" class="tf">description<tspan x="186.41" class="ty">text</tspan></text><text x="13" y="161" class="tf">goal<tspan x="186.41" class="ty">numeric(10,2)</tspan></text><text x="13" y="186" class="tf">pledged<tspan x="186.41" class="ty">numeric(10,2)</tspan></text><text x="13" y="211" class="tf">outcome<tspan x="186.41" class="ty">varchar(50)</tspan></text><text x="13" y="236" class="tf">backers_count<tspan x="186.41" class="ty">int</tspan></text><text x="13" y="261" class="tf">country<tspan x="186.41" class="ty">varchar(10)</tspan></text><text x="13" y="286" class="tf">currency<tspan x="186.41" class="ty">varchar(10)</tspan></text><text x="13" y="311" class="tf">launch_date<tspan x="186.41" class="ty">date</tspan></text><text x="13" y="336" class="tf">end_date<tspan x="186.41" class="ty">date</tspan></text><text x="13" y="361" class="tf fk">category_id<tspan x="186.41" class="ty">varchar(10)</tspan></text><text x="13" y="386" class="tf fk">subcategory_id<tspan x="186.41" class="ty">varchar10</tspan></text></svg><svg width="190.07" height="100" x="412.5" y="-80" id="h2794354149" class="t"><rect height="40" width="190.07" class="th"></rect><text x="13" y="25" class="tht">category</text><rect height="60" width="190.07" class="t-bg" y="40"></rect><text x="13" y="61" class="tf pk">category_id<tspan x="177.07" class="ty">int</tspan></text><path d="M7,14A2,2 0 0,1 5,12A2,2 0 0,1 7,10A2,2 0 0,1 9,12A2,2 0 0,1 7,14M12.65,10C11.83,7.67 9.61,6 7, 6A6, 6 0 0, 0 1, 12A6, 6 0 0, 0 7, 18C9.61, 18 11.83, 16.33 12.65, 14H17V18H21V14H23V10H12.65Z" class="i pk" transform="translate(144.396171875, 48) scale(0.65)"></path><text x="13" y="86" class="tf">category_name<tspan x="177.07" class="ty">varchar(50)</tspan></text></svg><svg width="209.42" height="100" x="386.25" y="180" id="h1568904301" class="t"><rect height="40" width="209.42" class="th"></rect><text x="13" y="25" class="tht">subcategory</text><rect height="60" width="209.42" class="t-bg" y="40"></rect><text x="13" y="61" class="tf pk">subcategory_id<tspan x="196.42" class="ty">int</tspan></text><path d="M7,14A2,2 0 0,1 5,12A2,2 0 0,1 7,10A2,2 0 0,1 9,12A2,2 0 0,1 7,14M12.65,10C11.83,7.67 9.61,6 7, 6A6, 6 0 0, 0 1, 12A6, 6 0 0, 0 7, 18C9.61, 18 11.83, 16.33 12.65, 14H17V18H21V14H23V10H12.65Z" class="i pk" transform="translate(163.746171875, 48) scale(0.65)"></path><text x="13" y="86" class="tf">subcategory_name<tspan x="196.42" class="ty">varchar(50)</tspan></text></svg><svg width="163.38" height="150" x="445" y="-297.5" id="h4144639668" class="t"><rect height="40" width="163.38" class="th"></rect><text x="13" y="25" class="tht">contacts</text><rect height="110" width="163.38" class="t-bg" y="40"></rect><text x="13" y="61" class="tf pk">contact_id<tspan x="150.38" class="ty">int</tspan></text><path d="M7,14A2,2 0 0,1 5,12A2,2 0 0,1 7,10A2,2 0 0,1 9,12A2,2 0 0,1 7,14M12.65,10C11.83,7.67 9.61,6 7, 6A6, 6 0 0, 0 1, 12A6, 6 0 0, 0 7, 18C9.61, 18 11.83, 16.33 12.65, 14H17V18H21V14H23V10H12.65Z" class="i pk" transform="translate(117.706171875, 48) scale(0.65)"></path><text x="13" y="86" class="tf">first_name<tspan x="150.38" class="ty">varchar(50)</tspan></text><text x="13" y="111" class="tf">last_name<tspan x="150.38" class="ty">varchar(50)</tspan></text><text x="13" y="136" class="tf">email<tspan x="150.38" class="ty">varchar(100)</tspan></text></svg><svg width="172.71" height="175" x="132.5" y="331.25" id="h3825463690" class="t"><rect height="40" width="172.71" class="th"></rect><text x="13" y="25" class="tht">backers</text><rect height="135" width="172.71" class="t-bg" y="40"></rect><text x="13" y="61" class="tf pk">backer_id<tspan x="159.71" class="ty">varchar(6)</tspan></text><path d="M7,14A2,2 0 0,1 5,12A2,2 0 0,1 7,10A2,2 0 0,1 9,12A2,2 0 0,1 7,14M12.65,10C11.83,7.67 9.61,6 7, 6A6, 6 0 0, 0 1, 12A6, 6 0 0, 0 7, 18C9.61, 18 11.83, 16.33 12.65, 14H17V18H21V14H23V10H12.65Z" class="i pk" transform="translate(85.03031250000001, 48) scale(0.65)"></path><text x="13" y="86" class="tf fk">cf_id<tspan x="159.71" class="ty">int</tspan></text><text x="13" y="111" class="tf">first_name<tspan x="159.71" class="ty">varchar(50)</tspan></text><text x="13" y="136" class="tf">last_name<tspan x="159.71" class="ty">varchar(50)</tspan></text><text x="13" y="161" class="tf">email<tspan x="159.71" class="ty">varchar(100)</tspan></text></svg></g></g><text class="qdbd-link" x="10" y="20">www.quickdatabasediagrams.com</text></svg>